# WaveFront *.obj file (generated by Autodesk ATF)

mtllib test.mtl

g Body1

v -12.000000 12.000000 0.000000
v -12.000000 -82.000001 0.000000
v -12.000000 -82.000001 2.000000
v -12.000000 12.000000 2.000000
v 131.000002 12.000000 0.000000
v 131.000002 12.000000 2.000000
v 131.000002 -82.000001 0.000000
v 131.000002 -82.000001 2.000000
v -2.000000 2.000000 2.000000
v -2.000000 -72.000001 2.000000
v -2.000000 -72.000001 18.000000
v -2.000000 2.000000 18.000000
v 121.000002 -72.000001 2.000000
v 121.000002 -72.000001 18.000000
v 121.000000 -64.000001 2.000000
v 121.000002 -64.000001 18.000000
v 119.000000 -64.000001 2.000000
v 119.000000 -70.000000 2.000000
v 119.000002 -70.000001 18.000000
v 119.000002 -64.000001 18.000000
v 0.000000 -70.000000 2.000000
v 0.000000 -70.000001 18.000000
v 119.000000 0.000000 2.000000
v 119.000002 -6.000000 2.000000
v 119.000002 -6.000000 18.000000
v 119.000002 0.000000 18.000000
v 121.000000 -6.000000 2.000000
v 121.000002 -6.000000 18.000000
v 0.000000 0.000000 18.000000
v 0.000000 0.000000 2.000000
v 121.000002 2.000000 2.000000
v 121.000002 2.000000 18.000000
vt -0.000000 0.000000 0.000000
vt 9.400000 0.000000 0.000000
vt -0.000000 0.200000 0.000000
vt 9.400000 0.200000 0.000000
vt -0.000000 0.000000 0.000000
vt 14.300000 0.000000 0.000000
vt -0.000000 0.200000 0.000000
vt 14.300000 0.200000 0.000000
vt 0.000000 0.000000 0.000000
vt 9.400000 0.000000 0.000000
vt 0.000000 0.200000 0.000000
vt 9.400000 0.200000 0.000000
vt 0.000000 0.000000 0.000000
vt 14.300000 0.000000 0.000000
vt 0.000000 0.200000 0.000000
vt 14.300000 0.200000 0.000000
vt 0.000000 0.200000 0.000000
vt 7.400000 0.200000 0.000000
vt 0.000000 1.800000 0.000000
vt 7.400000 1.800000 0.000000
vt 0.000000 0.200000 0.000000
vt 12.300000 0.200000 0.000000
vt 0.000000 1.800000 0.000000
vt 12.300000 1.800000 0.000000
vt 0.000000 0.200000 0.000000
vt 0.800000 0.200000 0.000000
vt 0.000000 1.800000 0.000000
vt 0.800000 1.800000 0.000000
vt 0.000000 0.200000 0.000000
vt 0.600000 0.200000 0.000000
vt 0.000000 1.800000 0.000000
vt 0.600000 1.800000 0.000000
vt 0.000000 1.800000 0.000000
vt 0.000000 0.200000 0.000000
vt 0.200000 1.800000 0.000000
vt 0.200000 0.200000 0.000000
vt 0.200000 1.800000 0.000000
vt 0.200000 0.200000 0.000000
vt 12.100000 1.800000 0.000000
vt 12.100000 0.200000 0.000000
vt 0.000000 0.200000 0.000000
vt 0.600000 0.200000 0.000000
vt -0.000000 1.800000 0.000000
vt 0.600000 1.800000 0.000000
vt 0.000000 0.200000 0.000000
vt 0.200000 0.200000 0.000000
vt 0.000000 1.800000 0.000000
vt 0.200000 1.800000 0.000000
vt 12.100000 1.800000 0.000000
vt 0.200000 1.800000 0.000000
vt 12.100000 0.200000 0.000000
vt 0.200000 0.200000 0.000000
vt 7.000000 0.200000 0.000000
vt 7.000000 1.800000 0.000000
vt 0.000000 0.200000 0.000000
vt 0.000000 1.800000 0.000000
vt 0.000000 0.200000 0.000000
vt 12.300000 0.200000 0.000000
vt 0.000000 1.800000 0.000000
vt 12.300000 1.800000 0.000000
vt -6.150000 -7.300000 0.000000
vt -5.950000 -0.100000 0.000000
vt -6.150000 0.100000 0.000000
vt 5.950000 -0.100000 0.000000
vt 6.150000 0.100000 0.000000
vt 6.150000 -0.700000 0.000000
vt 5.950000 -0.700000 0.000000
vt -5.950000 -7.100000 0.000000
vt 6.150000 -7.300000 0.000000
vt 5.950000 -7.100000 0.000000
vt 6.150000 -6.500000 0.000000
vt 5.950000 -6.500000 0.000000
vt 6.600000 0.200000 0.000000
vt 7.400000 0.200000 0.000000
vt 6.600000 1.800000 0.000000
vt 7.400000 1.800000 0.000000
vt 7.150000 -4.700000 0.000000
vt -6.150000 -3.700000 0.000000
vt -7.150000 -4.700000 0.000000
vt -6.150000 3.700000 0.000000
vt -7.150000 4.700000 0.000000
vt 6.150000 3.700000 0.000000
vt 7.150000 4.700000 0.000000
vt 6.150000 2.900000 0.000000
vt 6.150000 -2.900000 0.000000
vt 6.150000 -3.700000 0.000000
vt 5.950000 2.900000 0.000000
vt 5.950000 -2.900000 0.000000
vt -5.950000 3.500000 0.000000
vt -5.950000 -3.500000 0.000000
vt 5.950000 3.500000 0.000000
vt 5.950000 -3.500000 0.000000
vt -7.150000 -4.700000 0.000000
vt 7.150000 -4.700000 0.000000
vt -7.150000 4.700000 0.000000
vt 7.150000 4.700000 0.000000
vn -0.100000 0.000000 0.000000
vn -0.100000 0.000000 0.000000
vn -0.100000 0.000000 0.000000
vn -0.100000 0.000000 0.000000
vn 0.000000 0.100000 0.000000
vn 0.000000 0.100000 0.000000
vn 0.000000 0.100000 0.000000
vn 0.000000 0.100000 0.000000
vn 0.100000 0.000000 0.000000
vn 0.100000 0.000000 0.000000
vn 0.100000 0.000000 0.000000
vn 0.100000 0.000000 0.000000
vn 0.000000 -0.100000 0.000000
vn 0.000000 -0.100000 0.000000
vn 0.000000 -0.100000 0.000000
vn 0.000000 -0.100000 0.000000
vn -0.100000 0.000000 0.000000
vn -0.100000 0.000000 0.000000
vn -0.100000 0.000000 0.000000
vn -0.100000 0.000000 0.000000
vn 0.000000 -0.100000 0.000000
vn 0.000000 -0.100000 0.000000
vn 0.000000 -0.100000 0.000000
vn 0.000000 -0.100000 0.000000
vn 0.100000 0.000000 0.000000
vn 0.100000 0.000000 0.000000
vn 0.100000 0.000000 0.000000
vn 0.100000 0.000000 0.000000
vn -0.100000 0.000000 0.000000
vn -0.100000 0.000000 0.000000
vn -0.100000 0.000000 0.000000
vn -0.100000 0.000000 0.000000
vn 0.000000 0.100000 0.000000
vn 0.000000 0.100000 0.000000
vn 0.000000 0.100000 0.000000
vn 0.000000 0.100000 0.000000
vn 0.000000 0.100000 0.000000
vn 0.000000 0.100000 0.000000
vn 0.000000 0.100000 0.000000
vn 0.000000 0.100000 0.000000
vn -0.100000 0.000000 0.000000
vn -0.100000 0.000000 0.000000
vn -0.100000 0.000000 0.000000
vn -0.100000 0.000000 0.000000
vn 0.000000 -0.100000 0.000000
vn 0.000000 -0.100000 0.000000
vn 0.000000 -0.100000 0.000000
vn 0.000000 -0.100000 0.000000
vn 0.000000 -0.100000 0.000000
vn 0.000000 -0.100000 0.000000
vn 0.000000 -0.100000 0.000000
vn 0.000000 -0.100000 0.000000
vn 0.100000 0.000000 0.000000
vn 0.100000 0.000000 0.000000
vn 0.100000 0.000000 0.000000
vn 0.100000 0.000000 0.000000
vn 0.000000 0.100000 0.000000
vn 0.000000 0.100000 0.000000
vn 0.000000 0.100000 0.000000
vn 0.000000 0.100000 0.000000
vn 0.000000 0.000000 0.100000
vn 0.000000 0.000000 0.100000
vn 0.000000 0.000000 0.100000
vn 0.000000 0.000000 0.100000
vn 0.000000 0.000000 0.100000
vn 0.000000 0.000000 0.100000
vn 0.000000 0.000000 0.100000
vn 0.000000 0.000000 0.100000
vn 0.000000 0.000000 0.100000
vn 0.000000 0.000000 0.100000
vn 0.000000 0.000000 0.100000
vn 0.000000 0.000000 0.100000
vn 0.100000 0.000000 0.000000
vn 0.100000 0.000000 0.000000
vn 0.100000 0.000000 0.000000
vn 0.100000 0.000000 0.000000
vn 0.000000 0.000000 0.100000
vn 0.000000 0.000000 0.100000
vn 0.000000 0.000000 0.100000
vn 0.000000 0.000000 0.100000
vn 0.000000 0.000000 0.100000
vn 0.000000 0.000000 0.100000
vn 0.000000 0.000000 0.100000
vn 0.000000 0.000000 0.100000
vn 0.000000 0.000000 0.100000
vn 0.000000 0.000000 0.100000
vn 0.000000 0.000000 0.100000
vn 0.000000 0.000000 0.100000
vn 0.000000 0.000000 0.100000
vn 0.000000 0.000000 0.100000
vn 0.000000 0.000000 0.100000
vn 0.000000 0.000000 0.100000
vn -0.000000 0.000000 -0.100000
vn -0.000000 0.000000 -0.100000
vn -0.000000 0.000000 -0.100000
vn -0.000000 0.000000 -0.100000
usemtl Steel_-_Satin
f 1/1/1 2/2/2 4/3/3
f 4/3/3 2/2/2 3/4/4
f 5/5/5 1/6/6 6/7/7
f 6/7/7 1/6/6 4/8/8
f 7/9/9 5/10/10 8/11/11
f 8/11/11 5/10/10 6/12/12
f 2/13/13 7/14/14 3/15/15
f 3/15/15 7/14/14 8/16/16
f 9/17/17 10/18/18 12/19/19
f 12/19/19 10/18/18 11/20/20
f 10/21/21 13/22/22 11/23/23
f 11/23/23 13/22/22 14/24/24
f 13/25/25 15/26/26 14/27/27
f 14/27/27 15/26/26 16/28/28
f 17/29/29 18/30/30 20/31/31
f 20/31/31 18/30/30 19/32/32
f 16/33/33 15/34/34 20/35/35
f 20/35/35 15/34/34 17/36/36
f 19/37/37 18/38/38 22/39/39
f 22/39/39 18/38/38 21/40/40
f 23/41/41 24/42/42 26/43/43
f 26/43/43 24/42/42 25/44/44
f 24/45/45 27/46/46 25/47/47
f 25/47/47 27/46/46 28/48/48
f 26/49/49 29/50/50 23/51/51
f 23/51/51 29/50/50 30/52/52
f 30/53/53 29/54/54 21/55/55
f 21/55/55 29/54/54 22/56/56
f 31/57/57 9/58/58 32/59/59
f 32/59/59 9/58/58 12/60/60
f 11/61/61 29/62/62 12/63/63
f 12/63/63 29/62/62 26/64/64
f 12/63/63 26/64/64 32/65/65
f 32/65/65 26/64/64 28/66/66
f 28/66/66 26/64/64 25/67/67
f 29/62/62 11/61/61 22/68/68
f 22/68/68 11/61/61 14/69/69
f 22/68/68 14/69/69 19/70/70
f 19/70/70 14/69/69 16/71/71
f 19/70/70 16/71/71 20/72/72
f 27/73/73 31/74/74 28/75/75
f 28/75/75 31/74/74 32/76/76
f 8/77/77 10/78/78 3/79/79
f 3/79/79 10/78/78 9/80/80
f 3/79/79 9/80/80 4/81/81
f 4/81/81 9/80/80 31/82/82
f 4/81/81 31/82/82 6/83/83
f 6/83/83 31/82/82 27/84/84
f 6/83/83 27/84/84 8/77/77
f 8/77/77 27/84/84 15/85/85
f 8/77/77 15/85/85 13/86/86
f 27/84/84 24/87/87 15/85/85
f 15/85/85 24/87/87 17/88/88
f 17/88/88 24/87/87 30/89/89
f 17/88/88 30/89/89 21/90/90
f 24/87/87 23/91/91 30/89/89
f 21/90/90 18/92/92 17/88/88
f 13/86/86 10/78/78 8/77/77
f 7/93/93 2/94/94 5/95/95
f 5/95/95 2/94/94 1/96/96
# 32 vertices
# 96 texture params
# 96 normals
# 60 facets

# 1 groups
